<svg xmlns="http://www.w3.org/2000/svg" viewBox="0 0 128 128"><path fill="#FF4E4A" d="M127.917 64.034c0 29.973-20.617 55.13-48.443 62.064-4.967 1.238-9.33-7.15-14.681-7.15-4.76 0-10.234 8.525-14.698 7.538C21.437 120.153 0 94.597 0 64.034 0 28.71 28.635.075 63.959.075s63.958 28.635 63.958 63.959z"/><path fill="#F0F4F7" d="M80.039 20.27a2.508 2.508 0 0 0-.85-.4c-.077-.033-.15-.074-.227-.107l-.052.052c-.118-.017-.236-.036-.359-.036a2.537 2.537 0 0 0-2.537 2.537c0 .123.019.241.036.359l-.036.036v29.972c0 .897-.42 1.742-1.134 2.283l-9.159 6.942c-1.018.771-1.974 0-1.974 0l-9.159-6.942a2.865 2.865 0 0 1-1.135-2.283V22.438l-.011-.008c.002-.039.011-.075.011-.114a2.537 2.537 0 0 0-2.537-2.537c-.647 0-1.232.25-1.68.649-12.178 5.82-20.614 18.207-20.614 32.604 0 11.274 5.16 21.342 13.245 27.975l-.002-.001.006.004c.398.327.804.645 1.216.955 2.293 2.002 7.023 7.204 7.023 16.071v28.423a64.148 64.148 0 0 0 13.849 1.521c5.35 0 10.543-.667 15.51-1.904v-28.56c.181-8.358 4.558-13.369 6.852-15.419 8.884-6.591 14.643-17.155 14.643-29.066 0-14.52-8.577-27.006-20.925-32.761z"/><path fill="#BACBD6" d="M63.959 127.982c1.649 0 3.277-.084 4.893-.208V98.765a4.07 4.07 0 0 0-4.059-4.059 4.07 4.07 0 0 0-4.059 4.059v29.127c1.069.054 2.142.09 3.225.09z"/><circle fill="#BACBD6" cx="64.729" cy="79.46" r="7.695"/><path opacity=".2" fill="#00425B" d="M80.039 20.28a2.508 2.508 0 0 0-.85-.4c-.077-.033-.15-.074-.227-.107l-.052.052c-.118-.017-.236-.036-.359-.036a2.537 2.537 0 0 0-2.537 2.537c0 .123.019.241.036.359l-.036.036v29.972c0 .897-.42 1.742-1.134 2.283l-9.159 6.942a1.544 1.544 0 0 1-.927.333v65.718a64.046 64.046 0 0 0 14.676-1.883v-28.56c.181-8.358 4.558-13.369 6.852-15.419 8.884-6.591 14.643-17.155 14.643-29.066-.001-14.519-8.578-27.006-20.926-32.761z"/></svg>